<svg width="24" height="24" viewBox="0 0 24 24" fill="none" xmlns="http://www.w3.org/2000/svg">
<path d="M17.875 11.4737H5.125V6.21053H17.875M16.2812 17.7895C15.8586 17.7895 15.4532 17.6231 15.1543 17.327C14.8554 17.0309 14.6875 16.6293 14.6875 16.2105C14.6875 15.7918 14.8554 15.3902 15.1543 15.094C15.4532 14.7979 15.8586 14.6316 16.2812 14.6316C16.7039 14.6316 17.1093 14.7979 17.4082 15.094C17.7071 15.3902 17.875 15.7918 17.875 16.2105C17.875 16.6293 17.7071 17.0309 17.4082 17.327C17.1093 17.6231 16.7039 17.7895 16.2812 17.7895ZM6.71875 17.7895C6.29606 17.7895 5.89068 17.6231 5.5918 17.327C5.29291 17.0309 5.125 16.6293 5.125 16.2105C5.125 15.7918 5.29291 15.3902 5.5918 15.094C5.89068 14.7979 6.29606 14.6316 6.71875 14.6316C7.14144 14.6316 7.54682 14.7979 7.8457 15.094C8.14459 15.3902 8.3125 15.7918 8.3125 16.2105C8.3125 16.6293 8.14459 17.0309 7.8457 17.327C7.54682 17.6231 7.14144 17.7895 6.71875 17.7895ZM3 16.7368C3 17.6632 3.41437 18.4947 4.0625 19.0737V20.9474C4.0625 21.2265 4.17444 21.4943 4.3737 21.6917C4.57296 21.8891 4.84321 22 5.125 22H6.1875C6.46929 22 6.73954 21.8891 6.9388 21.6917C7.13806 21.4943 7.25 21.2265 7.25 20.9474V19.8947H15.75V20.9474C15.75 21.2265 15.8619 21.4943 16.0612 21.6917C16.2605 21.8891 16.5307 22 16.8125 22H17.875C18.1568 22 18.427 21.8891 18.6263 21.6917C18.8256 21.4943 18.9375 21.2265 18.9375 20.9474V19.0737C19.5856 18.4947 20 17.6632 20 16.7368V6.21053C20 2.52632 16.1962 2 11.5 2C6.80375 2 3 2.52632 3 6.21053V16.7368Z" fill="#E9471A"/>
</svg>
