<svg width="28" height="31" viewBox="0 0 28 31" fill="none" xmlns="http://www.w3.org/2000/svg">
<path d="M11.996 0.794229C12.5466 0.282877 13.2608 0 14.001 0C14.7412 0 15.4554 0.282877 16.006 0.794229L27.006 11.0103C27.3188 11.301 27.5689 11.6564 27.7401 12.0535C27.9114 12.4506 27.9999 12.8804 28 13.3152V27.8992C28 28.7216 27.6839 29.5103 27.1213 30.0918C26.5587 30.6733 25.7956 31 25 31H20C19.2044 31 18.4413 30.6733 17.8787 30.0918C17.3161 29.5103 17 28.7216 17 27.8992V20.6641C17 20.3899 16.8946 20.127 16.7071 19.9332C16.5196 19.7394 16.2652 19.6305 16 19.6305H12C11.7348 19.6305 11.4804 19.7394 11.2929 19.9332C11.1054 20.127 11 20.3899 11 20.6641V27.8992C11 28.7216 10.6839 29.5103 10.1213 30.0918C9.55871 30.6733 8.79565 31 8 31H3C2.20435 31 1.44129 30.6733 0.87868 30.0918C0.316071 29.5103 0 28.7216 0 27.8992V13.3152C0 12.4366 0.36 11.5994 0.996 11.0103L11.996 0.794229ZM14.668 2.33222C14.4845 2.16196 14.2466 2.06778 14 2.06778C13.7534 2.06778 13.5155 2.16196 13.332 2.33222L2.332 12.5483C2.22779 12.645 2.1444 12.7632 2.0872 12.8953C2.03001 13.0274 2.0003 13.1705 2 13.3152V27.8992C2 28.1733 2.10536 28.4362 2.29289 28.6301C2.48043 28.8239 2.73478 28.9328 3 28.9328H8C8.26522 28.9328 8.51957 28.8239 8.70711 28.6301C8.89464 28.4362 9 28.1733 9 27.8992V20.6641C9 19.8417 9.31607 19.053 9.87868 18.4715C10.4413 17.89 11.2044 17.5633 12 17.5633H16C16.7956 17.5633 17.5587 17.89 18.1213 18.4715C18.6839 19.053 19 19.8417 19 20.6641V27.8992C19 28.1733 19.1054 28.4362 19.2929 28.6301C19.4804 28.8239 19.7348 28.9328 20 28.9328H25C25.2652 28.9328 25.5196 28.8239 25.7071 28.6301C25.8946 28.4362 26 28.1733 26 27.8992V13.3152C25.9997 13.1705 25.97 13.0274 25.9128 12.8953C25.8556 12.7632 25.7722 12.645 25.668 12.5483L14.668 2.33222Z" fill="#E9471A"/>
</svg>
