<svg width="31" height="31" viewBox="0 0 31 31" fill="none" xmlns="http://www.w3.org/2000/svg">
<g clip-path="url(#clip0_978_887)">
<path d="M28.5781 0H2.42188C1.08371 0 0 1.085 0 2.42188V28.5781C0 29.9163 1.085 31 2.42188 31H28.5781C29.9163 31 31 29.915 31 28.5781V2.42188C31 1.08371 29.915 0 28.5781 0ZM15.5 24.2188C14.7353 24.2188 13.9896 24.1671 13.2628 24.0637C12.5369 24.5752 8.33771 27.5241 7.94117 27.5797C7.94117 27.5797 7.77971 27.643 7.6415 27.5616C7.50329 27.4802 7.52783 27.2658 7.52783 27.2658C7.56917 26.9816 8.61671 23.3675 8.80917 22.7023C5.26354 20.9457 2.90625 17.834 2.90625 14.2897C2.90625 8.80529 8.54437 4.35938 15.5 4.35938C22.4556 4.35938 28.0938 8.80529 28.0938 14.2897C28.0938 19.7741 22.4556 24.2188 15.5 24.2188ZM10.3979 12.7449H9.26383V17.0616C9.26383 17.444 8.93833 17.7553 8.53662 17.7553C8.13492 17.7553 7.81071 17.4452 7.81071 17.0616V12.7449H6.67663C6.49711 12.7316 6.32925 12.6509 6.20674 12.5191C6.08424 12.3872 6.01615 12.2138 6.01615 12.0338C6.01615 11.8538 6.08424 11.6805 6.20674 11.5486C6.32925 11.4167 6.49711 11.336 6.67663 11.3227H10.3966C10.5761 11.336 10.744 11.4167 10.8665 11.5486C10.989 11.6805 11.0571 11.8538 11.0571 12.0338C11.0571 12.2138 10.989 12.3872 10.8665 12.5191C10.744 12.6509 10.5761 12.7316 10.3966 12.7449M24.5882 16.5643C24.646 16.6404 24.6883 16.7271 24.7125 16.8196C24.7366 16.912 24.7422 17.0083 24.729 17.103C24.7156 17.1973 24.6838 17.2881 24.6352 17.3701C24.5867 17.4522 24.5224 17.5238 24.4461 17.5809C24.3205 17.6762 24.1672 17.7279 24.0095 17.7281C23.8968 17.7285 23.7855 17.7026 23.6846 17.6523C23.5837 17.6021 23.4959 17.529 23.4283 17.4388L21.7245 15.1822L21.4727 15.4341V17.019C21.4723 17.2115 21.3958 17.3961 21.2598 17.5324C21.1237 17.6686 20.9393 17.7455 20.7467 17.7462C20.5539 17.7462 20.3689 17.6696 20.2325 17.5332C20.0962 17.3968 20.0195 17.2119 20.0195 17.019V12.0487C20.0274 11.8613 20.1074 11.6842 20.2428 11.5544C20.3782 11.4246 20.5585 11.3521 20.7461 11.3521C20.9337 11.3521 21.114 11.4246 21.2494 11.5544C21.3848 11.6842 21.4648 11.8613 21.4727 12.0487V13.6116L23.5006 11.5837C23.6077 11.4785 23.7521 11.42 23.9023 11.4209C24.0831 11.4209 24.2665 11.4997 24.4035 11.6366C24.5276 11.7592 24.6033 11.9225 24.6166 12.0965C24.6231 12.1775 24.6122 12.2589 24.5846 12.3354C24.5569 12.4118 24.5132 12.4814 24.4564 12.5395L22.8005 14.1941L24.5882 16.5643ZM13.8028 12.0409C13.68 11.6922 13.308 11.3331 12.834 11.3227C12.3612 11.3331 11.9893 11.6922 11.8665 12.0396L10.1293 16.6134C9.90838 17.298 10.1008 17.5537 10.301 17.6467C10.4463 17.7111 10.6033 17.7449 10.7622 17.7462C11.0657 17.7462 11.2969 17.6235 11.3667 17.4259L11.727 16.483H13.9423L14.3026 17.4259C14.3724 17.6235 14.6036 17.7462 14.9071 17.7462C15.0661 17.7445 15.223 17.7102 15.3682 17.6455C15.5685 17.5538 15.7609 17.2993 15.54 16.6121L13.8028 12.0409ZM12.1094 15.1965L12.8353 13.135L13.5599 15.1965H12.1094ZM19.7367 16.9828C19.7319 17.1633 19.6561 17.3345 19.5257 17.4594C19.3953 17.5842 19.2209 17.6525 19.0405 17.6493H16.7103C16.5296 17.6528 16.3549 17.5847 16.2242 17.4598C16.0935 17.335 16.0175 17.1635 16.0128 16.9828V12.0487C16.0128 11.6482 16.346 11.3227 16.7555 11.3227C17.165 11.3227 17.4969 11.6482 17.4969 12.0487V16.3176H19.0405C19.4241 16.3176 19.738 16.616 19.738 16.9828" fill="#E9471A"/>
</g>
<defs>
<clipPath id="clip0_978_887">
<rect width="31" height="31" fill="white"/>
</clipPath>
</defs>
</svg>
