<svg width="184" height="129" viewBox="0 0 184 129" fill="none" xmlns="http://www.w3.org/2000/svg">
<path d="M50.925 88.744H24.045V75.944L49.645 15.4H65.005V75.944H71.661V88.744H65.005V105H50.925V88.744ZM50.925 75.944V41H50.669L36.845 75.944H50.925ZM98.975 106.28C92.063 106.28 86.7723 104.317 83.103 100.392C79.4337 96.4667 77.599 90.92 77.599 83.752V36.648C77.599 29.48 79.4337 23.9333 83.103 20.008C86.7723 16.0827 92.063 14.12 98.975 14.12C105.887 14.12 111.178 16.0827 114.847 20.008C118.516 23.9333 120.351 29.48 120.351 36.648V83.752C120.351 90.92 118.516 96.4667 114.847 100.392C111.178 104.317 105.887 106.28 98.975 106.28ZM98.975 93.48C103.839 93.48 106.271 90.536 106.271 84.648V35.752C106.271 29.864 103.839 26.92 98.975 26.92C94.111 26.92 91.679 29.864 91.679 35.752V84.648C91.679 90.536 94.111 93.48 98.975 93.48ZM153.425 88.744H126.545V75.944L152.145 15.4H167.505V75.944H174.161V88.744H167.505V105H153.425V88.744ZM153.425 75.944V41H153.169L139.345 75.944H153.425Z" fill="#DC471E"/>
<rect width="8.03003" height="8.03003" transform="matrix(1 0 0 -1 167 16.1841)" fill="#E9471A"/>
<rect width="8.03003" height="8.03003" transform="matrix(1 0 0 -1 0 59.03)" fill="#E9471A"/>
<path d="M183.03 8.03003V-2.86102e-06H175V8.03003H183.03ZM175.79 0.789836H182.24V7.24019H175.79V0.789836Z" fill="#E9471A"/>
<path d="M24.03 76.03V68H16V76.03H24.03ZM16.7898 68.7898H23.2402V75.2402H16.7898V68.7898Z" fill="#E9471A"/>
</svg>
