<svg width="24" height="24" viewBox="0 0 24 24" fill="none" xmlns="http://www.w3.org/2000/svg">
<path d="M11.5 2C6.80375 2 3 2.52632 3 6.21053V16.2105C3 18.2421 4.66813 19.8947 6.71875 19.8947L5.125 21.4737V22H17.875V21.4737L16.2812 19.8947C18.3319 19.8947 20 18.2421 20 16.2105V6.21053C20 2.52632 16.1962 2 11.5 2ZM6.71875 17.7895C5.83687 17.7895 5.125 17.0842 5.125 16.2105C5.125 15.3368 5.83687 14.6316 6.71875 14.6316C7.60063 14.6316 8.3125 15.3368 8.3125 16.2105C8.3125 17.0842 7.60063 17.7895 6.71875 17.7895ZM10.4375 11.4737H5.125V6.21053H10.4375V11.4737ZM16.2812 17.7895C15.3994 17.7895 14.6875 17.0842 14.6875 16.2105C14.6875 15.3368 15.3994 14.6316 16.2812 14.6316C17.1631 14.6316 17.875 15.3368 17.875 16.2105C17.875 17.0842 17.1631 17.7895 16.2812 17.7895ZM17.875 11.4737H12.5625V6.21053H17.875V11.4737Z" fill="#E9471A"/>
</svg>
